<svg width="32" height="32" viewBox="0 0 32 32" fill="none" xmlns="http://www.w3.org/2000/svg">
<path d="M12.666 17.9998C11.3771 17.9998 10.2771 17.5443 9.36602 16.6332C8.4549 15.7221 7.99935 14.6221 7.99935 13.3332C7.99935 12.0443 8.4549 10.9443 9.36602 10.0332C10.2771 9.12206 11.3771 8.6665 12.666 8.6665C13.9549 8.6665 15.0549 9.12206 15.966 10.0332C16.8771 10.9443 17.3327 12.0443 17.3327 13.3332C17.3327 14.6221 16.8771 15.7221 15.966 16.6332C15.0549 17.5443 13.9549 17.9998 12.666 17.9998ZM12.666 15.3332C13.2216 15.3332 13.6936 15.1385 14.082 14.7492C14.4713 14.3607 14.666 13.8887 14.666 13.3332C14.666 12.7776 14.4713 12.3056 14.082 11.9172C13.6936 11.5278 13.2216 11.3332 12.666 11.3332C12.1105 11.3332 11.6385 11.5278 11.25 11.9172C10.8607 12.3056 10.666 12.7776 10.666 13.3332C10.666 13.8887 10.8607 14.3607 11.25 14.7492C11.6385 15.1385 12.1105 15.3332 12.666 15.3332ZM21.9993 19.3332C21.066 19.3332 20.2771 19.0109 19.6327 18.3665C18.9882 17.7221 18.666 16.9332 18.666 15.9998C18.666 15.0665 18.9882 14.2776 19.6327 13.6332C20.2771 12.9887 21.066 12.6665 21.9993 12.6665C22.9327 12.6665 23.7216 12.9887 24.366 13.6332C25.0105 14.2776 25.3327 15.0665 25.3327 15.9998C25.3327 16.9332 25.0105 17.7221 24.366 18.3665C23.7216 19.0109 22.9327 19.3332 21.9993 19.3332ZM13.7327 26.3998C14.7327 24.3776 16.066 23.0274 17.7327 22.3492C19.3993 21.6718 20.8216 21.3332 21.9993 21.3332C22.5105 21.3332 23.0105 21.3776 23.4993 21.4665C23.9882 21.5554 24.466 21.6665 24.9327 21.7998C25.466 20.9554 25.8882 20.0443 26.1993 19.0665C26.5105 18.0887 26.666 17.0665 26.666 15.9998C26.666 13.0221 25.6327 10.4998 23.566 8.43317C21.4993 6.3665 18.9771 5.33317 15.9993 5.33317C13.0216 5.33317 10.4993 6.3665 8.43268 8.43317C6.36602 10.4998 5.33268 13.0221 5.33268 15.9998C5.33268 16.9998 5.46024 17.9554 5.71535 18.8665C5.97135 19.7776 6.3549 20.6221 6.86602 21.3998C7.73268 20.9554 8.64957 20.6109 9.61668 20.3665C10.5829 20.1221 11.5993 19.9998 12.666 19.9998C13.3771 19.9998 14.0607 20.0607 14.7167 20.1825C15.3718 20.3052 16.0216 20.4665 16.666 20.6665C16.1549 20.9332 15.6718 21.2443 15.2167 21.5998C14.7607 21.9554 14.3327 22.3332 13.9327 22.7332C13.666 22.6887 13.4385 22.6665 13.25 22.6665H12.666C11.9327 22.6665 11.2216 22.7443 10.5327 22.8998C9.84379 23.0554 9.17713 23.2887 8.53268 23.5998C9.24379 24.3109 10.0385 24.9056 10.9167 25.3838C11.794 25.8612 12.7327 26.1998 13.7327 26.3998ZM15.9993 29.3332C14.1549 29.3332 12.4216 28.9829 10.7993 28.2825C9.17713 27.5829 7.76602 26.6332 6.56602 25.4332C5.36602 24.2332 4.41624 22.8221 3.71668 21.1998C3.01624 19.5776 2.66602 17.8443 2.66602 15.9998C2.66602 14.1554 3.01624 12.4221 3.71668 10.7998C4.41624 9.17762 5.36602 7.7665 6.56602 6.5665C7.76602 5.3665 9.17713 4.41628 10.7993 3.71584C12.4216 3.01628 14.1549 2.6665 15.9993 2.6665C17.8438 2.6665 19.5771 3.01628 21.1993 3.71584C22.8216 4.41628 24.2327 5.3665 25.4327 6.5665C26.6327 7.7665 27.5825 9.17762 28.282 10.7998C28.9825 12.4221 29.3327 14.1554 29.3327 15.9998C29.3327 17.8443 28.9825 19.5776 28.282 21.1998C27.5825 22.8221 26.6327 24.2332 25.4327 25.4332C24.2327 26.6332 22.8216 27.5829 21.1993 28.2825C19.5771 28.9829 17.8438 29.3332 15.9993 29.3332Z" fill="#00A9DF"/>
<path d="M12.666 17.9998C11.3771 17.9998 10.2771 17.5443 9.36602 16.6332C8.4549 15.7221 7.99935 14.6221 7.99935 13.3332C7.99935 12.0443 8.4549 10.9443 9.36602 10.0332C10.2771 9.12206 11.3771 8.6665 12.666 8.6665C13.9549 8.6665 15.0549 9.12206 15.966 10.0332C16.8771 10.9443 17.3327 12.0443 17.3327 13.3332C17.3327 14.6221 16.8771 15.7221 15.966 16.6332C15.0549 17.5443 13.9549 17.9998 12.666 17.9998ZM12.666 15.3332C13.2216 15.3332 13.6936 15.1385 14.082 14.7492C14.4713 14.3607 14.666 13.8887 14.666 13.3332C14.666 12.7776 14.4713 12.3056 14.082 11.9172C13.6936 11.5278 13.2216 11.3332 12.666 11.3332C12.1105 11.3332 11.6385 11.5278 11.25 11.9172C10.8607 12.3056 10.666 12.7776 10.666 13.3332C10.666 13.8887 10.8607 14.3607 11.25 14.7492C11.6385 15.1385 12.1105 15.3332 12.666 15.3332ZM21.9993 19.3332C21.066 19.3332 20.2771 19.0109 19.6327 18.3665C18.9882 17.7221 18.666 16.9332 18.666 15.9998C18.666 15.0665 18.9882 14.2776 19.6327 13.6332C20.2771 12.9887 21.066 12.6665 21.9993 12.6665C22.9327 12.6665 23.7216 12.9887 24.366 13.6332C25.0105 14.2776 25.3327 15.0665 25.3327 15.9998C25.3327 16.9332 25.0105 17.7221 24.366 18.3665C23.7216 19.0109 22.9327 19.3332 21.9993 19.3332ZM13.7327 26.3998C14.7327 24.3776 16.066 23.0274 17.7327 22.3492C19.3993 21.6718 20.8216 21.3332 21.9993 21.3332C22.5105 21.3332 23.0105 21.3776 23.4993 21.4665C23.9882 21.5554 24.466 21.6665 24.9327 21.7998C25.466 20.9554 25.8882 20.0443 26.1993 19.0665C26.5105 18.0887 26.666 17.0665 26.666 15.9998C26.666 13.0221 25.6327 10.4998 23.566 8.43317C21.4993 6.3665 18.9771 5.33317 15.9993 5.33317C13.0216 5.33317 10.4993 6.3665 8.43268 8.43317C6.36602 10.4998 5.33268 13.0221 5.33268 15.9998C5.33268 16.9998 5.46024 17.9554 5.71535 18.8665C5.97135 19.7776 6.3549 20.6221 6.86602 21.3998C7.73268 20.9554 8.64957 20.6109 9.61668 20.3665C10.5829 20.1221 11.5993 19.9998 12.666 19.9998C13.3771 19.9998 14.0607 20.0607 14.7167 20.1825C15.3718 20.3052 16.0216 20.4665 16.666 20.6665C16.1549 20.9332 15.6718 21.2443 15.2167 21.5998C14.7607 21.9554 14.3327 22.3332 13.9327 22.7332C13.666 22.6887 13.4385 22.6665 13.25 22.6665H12.666C11.9327 22.6665 11.2216 22.7443 10.5327 22.8998C9.84379 23.0554 9.17713 23.2887 8.53268 23.5998C9.24379 24.3109 10.0385 24.9056 10.9167 25.3838C11.794 25.8612 12.7327 26.1998 13.7327 26.3998ZM15.9993 29.3332C14.1549 29.3332 12.4216 28.9829 10.7993 28.2825C9.17713 27.5829 7.76602 26.6332 6.56602 25.4332C5.36602 24.2332 4.41624 22.8221 3.71668 21.1998C3.01624 19.5776 2.66602 17.8443 2.66602 15.9998C2.66602 14.1554 3.01624 12.4221 3.71668 10.7998C4.41624 9.17762 5.36602 7.7665 6.56602 6.5665C7.76602 5.3665 9.17713 4.41628 10.7993 3.71584C12.4216 3.01628 14.1549 2.6665 15.9993 2.6665C17.8438 2.6665 19.5771 3.01628 21.1993 3.71584C22.8216 4.41628 24.2327 5.3665 25.4327 6.5665C26.6327 7.7665 27.5825 9.17762 28.282 10.7998C28.9825 12.4221 29.3327 14.1554 29.3327 15.9998C29.3327 17.8443 28.9825 19.5776 28.282 21.1998C27.5825 22.8221 26.6327 24.2332 25.4327 25.4332C24.2327 26.6332 22.8216 27.5829 21.1993 28.2825C19.5771 28.9829 17.8438 29.3332 15.9993 29.3332Z" fill="#00A9DF"/>
</svg>
