<svg width="193" height="61" viewBox="0 0 193 61" fill="none" xmlns="http://www.w3.org/2000/svg">
<path d="M17.7672 44.456H12.5059V13.7069H17.1585L28.029 27.9832L38.5083 13.7069H43.1174V44.456H37.856V23.1512L28.5943 35.363H27.2463L17.7672 23.1073V44.456ZM49.4114 52.9779L51.3681 48.7169C51.658 48.8926 51.9914 48.9805 52.3682 48.9805C53.7307 48.9805 54.9192 47.7066 55.9338 45.1588L56.7165 43.0942L45.585 21.6138H51.3247L59.108 37.0323L65.1085 21.6138H70.4134L61.543 43.7971C60.2385 47.1063 58.9341 49.5662 57.6296 51.1768C56.2671 52.8168 54.5713 53.6368 52.5422 53.6368C51.3247 53.6368 50.2811 53.4171 49.4114 52.9779ZM96.3225 35.6705L99.4097 39.0968C98.0762 40.9711 96.2935 42.3914 94.0614 43.3578C91.8583 44.3242 89.5247 44.8074 87.0607 44.8074C82.3357 44.8074 78.5382 43.3578 75.6684 40.4586C72.8275 37.5594 71.4071 33.767 71.4071 29.0814C71.4071 24.513 72.8855 20.7499 75.8423 17.7921C78.7991 14.8344 82.5096 13.3555 86.9738 13.3555C89.3508 13.3555 91.6264 13.8094 93.8005 14.7172C95.9746 15.5958 97.6849 16.9136 98.9314 18.6707L95.4528 22.0091C93.3657 19.6371 90.6263 18.451 87.2347 18.451C84.075 18.451 81.553 19.4467 79.6687 21.4381C77.8135 23.4002 76.8859 25.948 76.8859 29.0814C76.8859 32.2442 77.857 34.8066 79.7992 36.7687C81.7704 38.7308 84.3214 39.7118 87.4521 39.7118C91.1046 39.7118 94.0614 38.3647 96.3225 35.6705ZM104.818 28.159L102.383 24.4691C103.514 23.3855 104.949 22.5509 106.688 21.9652C108.427 21.3795 110.152 21.0867 111.862 21.0867C114.848 21.0867 117.138 21.9066 118.733 23.5466C120.327 25.1573 121.124 27.4708 121.124 30.4871V44.456H116.167V41.9521C114.515 43.7971 112.181 44.7195 109.166 44.7195C106.818 44.7195 104.862 44.1046 103.296 42.8746C101.731 41.6153 100.948 39.829 100.948 37.5155C100.948 36.1098 101.267 34.9091 101.905 33.9134C102.543 32.9177 103.412 32.171 104.514 31.6731C105.615 31.1753 106.731 30.8239 107.862 30.6189C108.993 30.3846 110.21 30.2675 111.515 30.2675C113.225 30.2675 114.776 30.4725 116.167 30.8824C116.225 29.2718 115.877 27.9979 115.124 27.0608C114.37 26.1822 113.094 25.743 111.297 25.743C109.065 25.743 106.905 26.5483 104.818 28.159ZM110.254 40.3707C111.442 40.3707 112.573 40.0925 113.645 39.5361C114.718 38.9797 115.558 38.2183 116.167 37.2519V35.0555C114.718 34.6456 113.341 34.4406 112.036 34.4406C108.065 34.4406 106.079 35.4509 106.079 37.4715C106.079 38.4672 106.5 39.1993 107.34 39.6679C108.21 40.1365 109.181 40.3707 110.254 40.3707ZM158.135 29.3011V44.456H153.178V30.7067C153.178 27.4268 151.917 25.7869 149.395 25.7869C148.294 25.7869 147.294 26.109 146.395 26.7533C145.496 27.3976 144.815 28.2468 144.351 29.3011V44.456H139.394V29.6086C139.394 28.4664 139.061 27.544 138.394 26.8411C137.728 26.1383 136.829 25.7869 135.698 25.7869C134.568 25.7869 133.539 26.1383 132.611 26.8411C131.684 27.544 131.002 28.4372 130.567 29.5207V44.456H125.61V21.6138H130.567V23.5905C131.669 21.9506 133.727 21.1306 136.742 21.1306C139.554 21.1306 141.597 22.0677 142.873 23.9419C144.438 22.0677 146.714 21.1306 149.7 21.1306C152.425 21.1306 154.512 21.8188 155.961 23.1952C157.411 24.5423 158.135 26.5776 158.135 29.3011ZM167.553 53.2414H162.596V21.6138H167.553V23.6784C168.219 22.8291 169.118 22.1848 170.249 21.7456C171.408 21.3063 172.597 21.0867 173.814 21.0867C177.206 21.0867 179.873 22.1702 181.815 24.3373C183.786 26.5044 184.772 29.2718 184.772 32.6395C184.772 36.1537 183.728 39.0676 181.641 41.3811C179.583 43.6946 176.858 44.8513 173.466 44.8513C172.394 44.8513 171.263 44.7049 170.075 44.412C168.915 44.0899 168.075 43.6067 167.553 42.9624V53.2414ZM173.292 25.743C172.046 25.743 170.901 26.0797 169.857 26.7533C168.843 27.4268 168.075 28.3347 167.553 29.4768V37.3837C168.683 39.2579 170.466 40.195 172.901 40.195C174.959 40.195 176.597 39.5361 177.815 38.2183C179.032 36.8712 179.641 35.1434 179.641 33.0349C179.641 30.8678 179.105 29.1107 178.032 27.7636C176.959 26.4165 175.38 25.743 173.292 25.743Z" fill="url(#paint0_linear_127_33)"/>
<mask id="mask0_127_33" style="mask-type:alpha" maskUnits="userSpaceOnUse" x="-1" y="0" width="208" height="61">
<path d="M189.732 3.04541H16.709C8.82924 3.04541 2.44141 9.49861 2.44141 17.459V43.5409C2.44141 51.5013 8.82924 57.9545 16.709 57.9545H189.732C197.612 57.9545 204 51.5013 204 43.5409V17.459C204 9.49861 197.612 3.04541 189.732 3.04541Z" stroke="#60B2DF" stroke-width="5"/>
</mask>
<g mask="url(#mask0_127_33)">
<path d="M79.2159 60.0136H0.404297L0.404302 0.986328L65.7464 0.986334L79.2159 60.0136Z" fill="url(#paint1_linear_127_33)"/>
</g>
<path d="M17.7672 44.456H12.5059V13.7069H17.1585L28.029 27.9832L38.5083 13.7069H43.1174V44.456H37.856V23.1512L28.5943 35.363H27.2463L17.7672 23.1073V44.456ZM49.4114 52.9779L51.3681 48.7169C51.658 48.8926 51.9914 48.9805 52.3682 48.9805C53.7307 48.9805 54.9192 47.7066 55.9338 45.1588L56.7165 43.0942L45.585 21.6138H51.3247L59.108 37.0323L65.1085 21.6138H70.4134L61.543 43.7971C60.2385 47.1063 58.9341 49.5662 57.6296 51.1768C56.2671 52.8168 54.5713 53.6368 52.5422 53.6368C51.3247 53.6368 50.2811 53.4171 49.4114 52.9779ZM96.3225 35.6705L99.4097 39.0968C98.0762 40.9711 96.2935 42.3914 94.0614 43.3578C91.8583 44.3242 89.5247 44.8074 87.0607 44.8074C82.3357 44.8074 78.5382 43.3578 75.6684 40.4586C72.8275 37.5594 71.4071 33.767 71.4071 29.0814C71.4071 24.513 72.8855 20.7499 75.8423 17.7921C78.7991 14.8344 82.5096 13.3555 86.9738 13.3555C89.3508 13.3555 91.6264 13.8094 93.8005 14.7172C95.9746 15.5958 97.6849 16.9136 98.9314 18.6707L95.4528 22.0091C93.3657 19.6371 90.6263 18.451 87.2347 18.451C84.075 18.451 81.553 19.4467 79.6687 21.4381C77.8135 23.4002 76.8859 25.948 76.8859 29.0814C76.8859 32.2442 77.857 34.8066 79.7992 36.7687C81.7704 38.7308 84.3214 39.7118 87.4521 39.7118C91.1046 39.7118 94.0614 38.3647 96.3225 35.6705ZM104.818 28.159L102.383 24.4691C103.514 23.3855 104.949 22.5509 106.688 21.9652C108.427 21.3795 110.152 21.0867 111.862 21.0867C114.848 21.0867 117.138 21.9066 118.733 23.5466C120.327 25.1573 121.124 27.4708 121.124 30.4871V44.456H116.167V41.9521C114.515 43.7971 112.181 44.7195 109.166 44.7195C106.818 44.7195 104.862 44.1046 103.296 42.8746C101.731 41.6153 100.948 39.829 100.948 37.5155C100.948 36.1098 101.267 34.9091 101.905 33.9134C102.543 32.9177 103.412 32.171 104.514 31.6731C105.615 31.1753 106.731 30.8239 107.862 30.6189C108.993 30.3846 110.21 30.2675 111.515 30.2675C113.225 30.2675 114.776 30.4725 116.167 30.8824C116.225 29.2718 115.877 27.9979 115.124 27.0608C114.37 26.1822 113.094 25.743 111.297 25.743C109.065 25.743 106.905 26.5483 104.818 28.159ZM110.254 40.3707C111.442 40.3707 112.573 40.0925 113.645 39.5361C114.718 38.9797 115.558 38.2183 116.167 37.2519V35.0555C114.718 34.6456 113.341 34.4406 112.036 34.4406C108.065 34.4406 106.079 35.4509 106.079 37.4715C106.079 38.4672 106.5 39.1993 107.34 39.6679C108.21 40.1365 109.181 40.3707 110.254 40.3707ZM158.135 29.3011V44.456H153.178V30.7067C153.178 27.4268 151.917 25.7869 149.395 25.7869C148.294 25.7869 147.294 26.109 146.395 26.7533C145.496 27.3976 144.815 28.2468 144.351 29.3011V44.456H139.394V29.6086C139.394 28.4664 139.061 27.544 138.394 26.8411C137.728 26.1383 136.829 25.7869 135.698 25.7869C134.568 25.7869 133.539 26.1383 132.611 26.8411C131.684 27.544 131.002 28.4372 130.567 29.5207V44.456H125.61V21.6138H130.567V23.5905C131.669 21.9506 133.727 21.1306 136.742 21.1306C139.554 21.1306 141.597 22.0677 142.873 23.9419C144.438 22.0677 146.714 21.1306 149.7 21.1306C152.425 21.1306 154.512 21.8188 155.961 23.1952C157.411 24.5423 158.135 26.5776 158.135 29.3011ZM167.553 53.2414H162.596V21.6138H167.553V23.6784C168.219 22.8291 169.118 22.1848 170.249 21.7456C171.408 21.3063 172.597 21.0867 173.814 21.0867C177.206 21.0867 179.873 22.1702 181.815 24.3373C183.786 26.5044 184.772 29.2718 184.772 32.6395C184.772 36.1537 183.728 39.0676 181.641 41.3811C179.583 43.6946 176.858 44.8513 173.466 44.8513C172.394 44.8513 171.263 44.7049 170.075 44.412C168.915 44.0899 168.075 43.6067 167.553 42.9624V53.2414ZM173.292 25.743C172.046 25.743 170.901 26.0797 169.857 26.7533C168.843 27.4268 168.075 28.3347 167.553 29.4768V37.3837C168.683 39.2579 170.466 40.195 172.901 40.195C174.959 40.195 176.597 39.5361 177.815 38.2183C179.032 36.8712 179.641 35.1434 179.641 33.0349C179.641 30.8678 179.105 29.1107 178.032 27.7636C176.959 26.4165 175.38 25.743 173.292 25.743Z" fill="url(#paint2_linear_127_33)"/>
<mask id="mask1_127_33" style="mask-type:alpha" maskUnits="userSpaceOnUse" x="-1" y="0" width="208" height="61">
<path d="M189.732 3.04541H16.709C8.82924 3.04541 2.44141 9.49861 2.44141 17.459V43.5409C2.44141 51.5013 8.82924 57.9545 16.709 57.9545H189.732C197.612 57.9545 204 51.5013 204 43.5409V17.459C204 9.49861 197.612 3.04541 189.732 3.04541Z" stroke="#60B2DF" stroke-width="5"/>
</mask>
<g mask="url(#mask1_127_33)">
<path d="M79.2159 60.0136H0.404297L0.404302 0.986328L65.7464 0.986334L79.2159 60.0136Z" fill="url(#paint3_linear_127_33)"/>
</g>
<defs>
<linearGradient id="paint0_linear_127_33" x1="9.4621" y1="29.5848" x2="186.109" y2="29.5848" gradientUnits="userSpaceOnUse">
<stop stop-color="#72C6EF"/>
<stop offset="1" stop-color="#004E8F"/>
</linearGradient>
<linearGradient id="paint1_linear_127_33" x1="79.2159" y1="30.5" x2="-110.244" y2="30.5" gradientUnits="userSpaceOnUse">
<stop stop-color="#72C6EF"/>
<stop offset="1" stop-color="#004E8F"/>
</linearGradient>
<linearGradient id="paint2_linear_127_33" x1="9.4621" y1="29.5848" x2="186.109" y2="29.5848" gradientUnits="userSpaceOnUse">
<stop stop-color="#72C6EF"/>
<stop offset="1" stop-color="#004E8F"/>
</linearGradient>
<linearGradient id="paint3_linear_127_33" x1="79.2159" y1="30.5" x2="-110.244" y2="30.5" gradientUnits="userSpaceOnUse">
<stop stop-color="#72C6EF"/>
<stop offset="1" stop-color="#004E8F"/>
</linearGradient>
</defs>
</svg>
