<svg width="27" height="18" viewBox="0 0 27 18" fill="none" xmlns="http://www.w3.org/2000/svg">
<path d="M1.99935 4C1.62157 4 1.30513 3.872 1.05002 3.616C0.794016 3.36089 0.666016 3.04444 0.666016 2.66667C0.666016 2.28889 0.794016 1.972 1.05002 1.716C1.30513 1.46089 1.62157 1.33333 1.99935 1.33333H5.99935C6.37713 1.33333 6.69402 1.46089 6.95002 1.716C7.20513 1.972 7.33268 2.28889 7.33268 2.66667C7.33268 3.04444 7.20513 3.36089 6.95002 3.616C6.69402 3.872 6.37713 4 5.99935 4H1.99935ZM1.99935 10.6667C1.62157 10.6667 1.30513 10.5387 1.05002 10.2827C0.794016 10.0276 0.666016 9.71111 0.666016 9.33333C0.666016 8.95556 0.794016 8.63867 1.05002 8.38267C1.30513 8.12756 1.62157 8 1.99935 8H5.99935C6.37713 8 6.69402 8.12756 6.95002 8.38267C7.20513 8.63867 7.33268 8.95556 7.33268 9.33333C7.33268 9.71111 7.20513 10.0276 6.95002 10.2827C6.69402 10.5387 6.37713 10.6667 5.99935 10.6667H1.99935ZM24.5327 16.4L20.3327 12.2C19.7993 12.5778 19.2162 12.8609 18.5833 13.0493C17.9496 13.2387 17.3105 13.3333 16.666 13.3333C14.8216 13.3333 13.2496 12.6831 11.95 11.3827C10.6496 10.0831 9.99935 8.51111 9.99935 6.66667C9.99935 4.82222 10.6496 3.24978 11.95 1.94933C13.2496 0.649778 14.8216 0 16.666 0C18.5105 0 20.0829 0.649778 21.3833 1.94933C22.6829 3.24978 23.3327 4.82222 23.3327 6.66667C23.3327 7.31111 23.2385 7.95022 23.05 8.584C22.8607 9.21689 22.5771 9.8 22.1993 10.3333L26.3993 14.5333C26.6438 14.7778 26.766 15.0889 26.766 15.4667C26.766 15.8444 26.6438 16.1556 26.3993 16.4C26.1549 16.6444 25.8438 16.7667 25.466 16.7667C25.0882 16.7667 24.7771 16.6444 24.5327 16.4ZM16.666 10.6667C17.7771 10.6667 18.7216 10.2778 19.4993 9.5C20.2771 8.72222 20.666 7.77778 20.666 6.66667C20.666 5.55556 20.2771 4.61111 19.4993 3.83333C18.7216 3.05556 17.7771 2.66667 16.666 2.66667C15.5549 2.66667 14.6105 3.05556 13.8327 3.83333C13.0549 4.61111 12.666 5.55556 12.666 6.66667C12.666 7.77778 13.0549 8.72222 13.8327 9.5C14.6105 10.2778 15.5549 10.6667 16.666 10.6667ZM1.99935 17.3333C1.62157 17.3333 1.30513 17.2053 1.05002 16.9493C0.794016 16.6942 0.666016 16.3778 0.666016 16C0.666016 15.6222 0.794016 15.3058 1.05002 15.0507C1.30513 14.7947 1.62157 14.6667 1.99935 14.6667H12.666C13.0438 14.6667 13.3607 14.7947 13.6167 15.0507C13.8718 15.3058 13.9993 15.6222 13.9993 16C13.9993 16.3778 13.8718 16.6942 13.6167 16.9493C13.3607 17.2053 13.0438 17.3333 12.666 17.3333H1.99935Z" fill="white"/>
</svg>
