<svg width="33" height="24" viewBox="0 0 33 24" fill="none" xmlns="http://www.w3.org/2000/svg">
<path d="M16.5 0C24.7233 0 31.5649 5.17333 33 12C31.5664 18.8267 24.7233 24 16.5 24C8.27669 24 1.43511 18.8267 0 12C1.43359 5.17333 8.27669 0 16.5 0ZM16.5 21.3333C19.6104 21.3327 22.6284 20.4091 25.0601 18.7136C27.4919 17.018 29.1932 14.651 29.8858 12C29.1907 9.35107 27.4882 6.98667 25.0567 5.29337C22.6253 3.60006 19.6086 2.67804 16.5 2.67804C13.3914 2.67804 10.3747 3.60006 7.94327 5.29337C5.51179 6.98667 3.80933 9.35107 3.11424 12C3.80678 14.651 5.50815 17.018 7.93986 18.7136C10.3716 20.4091 13.3896 21.3327 16.5 21.3333V21.3333ZM16.5 18C14.6798 18 12.9342 17.3679 11.6472 16.2426C10.3601 15.1174 9.63707 13.5913 9.63707 12C9.63707 10.4087 10.3601 8.88258 11.6472 7.75736C12.9342 6.63214 14.6798 6 16.5 6C18.3202 6 20.0658 6.63214 21.3528 7.75736C22.6399 8.88258 23.3629 10.4087 23.3629 12C23.3629 13.5913 22.6399 15.1174 21.3528 16.2426C20.0658 17.3679 18.3202 18 16.5 18ZM16.5 15.3333C17.5112 15.3333 18.481 14.9821 19.196 14.357C19.911 13.7319 20.3127 12.8841 20.3127 12C20.3127 11.1159 19.911 10.2681 19.196 9.64298C18.481 9.01786 17.5112 8.66667 16.5 8.66667C15.4888 8.66667 14.519 9.01786 13.804 9.64298C13.089 10.2681 12.6873 11.1159 12.6873 12C12.6873 12.8841 13.089 13.7319 13.804 14.357C14.519 14.9821 15.4888 15.3333 16.5 15.3333Z" fill="#004C92"/>
</svg>
