<svg width="33" height="24" viewBox="0 0 33 24" fill="none" xmlns="http://www.w3.org/2000/svg">
<path d="M25.4706 21.6312C22.7883 23.1036 19.6764 23.8834 16.5 23.879C8.27669 23.879 1.43511 18.7578 0 12C0.655836 8.92566 2.44264 6.11719 5.09382 3.99363L7.2503 2.5L27.5953 20.222L25.4706 21.6312ZM7.2503 5.86258C5.1777 7.49342 3.73392 9.63585 3.11424 12C3.59052 13.8036 4.54671 15.486 5.9067 16.9134C7.26668 18.3408 8.99291 19.4737 10.948 20.222C12.903 20.9703 15.0329 21.3132 17.1681 21.2236C19.3033 21.1339 21.3849 20.6141 23.247 19.7055L20.1541 17.0288C18.8375 17.7466 17.2781 18.0558 15.7317 17.9058C14.1853 17.7558 12.7438 17.1554 11.6434 16.2031C10.5431 15.2509 9.84941 14.0033 9.67606 12.6649C9.50271 11.3266 9.86002 9.97707 10.6894 8.8376L7.2503 5.86258ZM17.8939 15.0727L12.9496 10.7937C12.6782 11.3915 12.6143 12.0449 12.7658 12.6736C12.9173 13.3024 13.2775 13.8793 13.8023 14.3334C14.3271 14.7876 14.9936 15.0994 15.7202 15.2304C16.4467 15.3615 17.2016 15.3063 17.8924 15.0714L17.8939 15.0727ZM29.9315 18.0609L27.7491 16.1735C28.7686 14.9161 29.4944 13.4984 29.8858 12C29.4713 10.429 28.692 8.94734 27.5953 7.64508C26.4986 6.34281 25.1073 5.24716 23.5061 4.42471C21.9049 3.60226 20.1271 3.0702 18.2809 2.86086C16.4347 2.65152 14.5586 2.76928 12.7666 3.20698L10.36 1.1242C12.2618 0.477462 14.3344 0.121094 16.5 0.121094C24.7233 0.121094 31.5649 5.24224 33 12C32.5327 14.1986 31.4823 16.2733 29.9315 18.0609ZM16.0775 6.07113C17.0483 6.01921 18.0207 6.14645 18.9303 6.44441C19.8399 6.74238 20.666 7.20426 21.3537 7.79945C22.0414 8.39464 22.5751 9.10953 22.9194 9.89675C23.2637 10.684 23.4107 11.5255 23.3507 12.3656L16.076 6.07113H16.0775Z" fill="#004C92"/>
</svg>
