<svg width="670" height="701" viewBox="0 0 670 701" fill="none" xmlns="http://www.w3.org/2000/svg">
<g filter="url(#filter0_d_118_38)">
<path d="M33 51C33 38.8497 42.8497 29 55 29H615C627.15 29 637 38.8497 637 51V642C637 654.15 627.15 664 615 664H55C42.8497 664 33 654.15 33 642V51Z" fill="url(#paint0_linear_118_38)"/>
</g>
<g filter="url(#filter1_i_118_38)">
<mask id="mask0_118_38" style="mask-type:alpha" maskUnits="userSpaceOnUse" x="33" y="29" width="604" height="635">
<rect x="33" y="29" width="604" height="635" rx="22" fill="#004C92"/>
</mask>
<g mask="url(#mask0_118_38)">
<path d="M637.5 29H925V664H341L637.5 29Z" fill="#004C92"/>
</g>
</g>
<defs>
<filter id="filter0_d_118_38" x="0" y="0" width="670" height="701" filterUnits="userSpaceOnUse" color-interpolation-filters="sRGB">
<feFlood flood-opacity="0" result="BackgroundImageFix"/>
<feColorMatrix in="SourceAlpha" type="matrix" values="0 0 0 0 0 0 0 0 0 0 0 0 0 0 0 0 0 0 127 0" result="hardAlpha"/>
<feOffset dy="4"/>
<feGaussianBlur stdDeviation="16.5"/>
<feComposite in2="hardAlpha" operator="out"/>
<feColorMatrix type="matrix" values="0 0 0 0 0 0 0 0 0 0 0 0 0 0 0 0 0 0 0.25 0"/>
<feBlend mode="normal" in2="BackgroundImageFix" result="effect1_dropShadow_118_38"/>
<feBlend mode="normal" in="SourceGraphic" in2="effect1_dropShadow_118_38" result="shape"/>
</filter>
<filter id="filter1_i_118_38" x="341" y="29" width="296" height="639" filterUnits="userSpaceOnUse" color-interpolation-filters="sRGB">
<feFlood flood-opacity="0" result="BackgroundImageFix"/>
<feBlend mode="normal" in="SourceGraphic" in2="BackgroundImageFix" result="shape"/>
<feColorMatrix in="SourceAlpha" type="matrix" values="0 0 0 0 0 0 0 0 0 0 0 0 0 0 0 0 0 0 127 0" result="hardAlpha"/>
<feOffset dy="4"/>
<feGaussianBlur stdDeviation="10"/>
<feComposite in2="hardAlpha" operator="arithmetic" k2="-1" k3="1"/>
<feColorMatrix type="matrix" values="0 0 0 0 0 0 0 0 0 0 0 0 0 0 0 0 0 0 0.25 0"/>
<feBlend mode="normal" in2="shape" result="effect1_innerShadow_118_38"/>
</filter>
<linearGradient id="paint0_linear_118_38" x1="33" y1="29" x2="766.06" y2="209.997" gradientUnits="userSpaceOnUse">
<stop stop-color="#5E5E5E"/>
<stop offset="0.0001" stop-color="#A0C6FF"/>
<stop offset="1" stop-color="#1A75FF"/>
</linearGradient>
</defs>
</svg>
