<svg width="537" height="185" viewBox="0 0 537 185" fill="none" xmlns="http://www.w3.org/2000/svg">
<path d="M23.868 176H21.312V153.176H5.328V176H2.772V150.8H23.868V176ZM31.3996 183.2H29.0596V157.28H31.3996V160.052C32.0236 159.02 32.9596 158.228 34.2076 157.676C35.4556 157.1 36.7396 156.812 38.0596 156.812C40.8196 156.812 42.9796 157.712 44.5396 159.512C46.1236 161.288 46.9156 163.544 46.9156 166.28C46.9156 169.136 46.0516 171.536 44.3236 173.48C42.5956 175.4 40.3516 176.36 37.5916 176.36C34.9516 176.36 32.8876 175.616 31.3996 174.128V183.2ZM37.8436 159.044C36.4276 159.044 35.1196 159.464 33.9196 160.304C32.7196 161.12 31.8796 162.188 31.3996 163.508V170.78C32.7676 173.012 34.8076 174.128 37.5196 174.128C39.6076 174.128 41.2756 173.384 42.5236 171.896C43.7956 170.384 44.4316 168.572 44.4316 166.46C44.4316 164.3 43.8436 162.524 42.6676 161.132C41.5156 159.74 39.9076 159.044 37.8436 159.044ZM49.3881 166.604C49.3881 163.724 50.3241 161.372 52.1961 159.548C54.0681 157.724 56.4201 156.812 59.2521 156.812C62.1321 156.812 64.4961 157.736 66.3441 159.584C68.1921 161.432 69.1161 163.772 69.1161 166.604C69.1161 169.484 68.1801 171.836 66.3081 173.66C64.4361 175.46 62.0841 176.36 59.2521 176.36C56.3721 176.36 54.0081 175.448 52.1601 173.624C50.3121 171.776 49.3881 169.436 49.3881 166.604ZM51.8721 166.604C51.8721 168.788 52.5681 170.588 53.9601 172.004C55.3521 173.42 57.1161 174.128 59.2521 174.128C61.4361 174.128 63.2121 173.42 64.5801 172.004C65.9481 170.588 66.6321 168.788 66.6321 166.604C66.6321 164.42 65.9361 162.62 64.5441 161.204C63.1761 159.764 61.4121 159.044 59.2521 159.044C57.0681 159.044 55.2921 159.764 53.9241 161.204C52.5561 162.644 51.8721 164.444 51.8721 166.604ZM80.7157 176H72.7237V157.28H80.3917C81.4237 157.28 82.2997 157.328 83.0197 157.424C83.7637 157.52 84.5437 157.712 85.3597 158C86.1757 158.288 86.7997 158.768 87.2317 159.44C87.6637 160.088 87.8797 160.928 87.8797 161.96C87.8797 163.856 87.0037 165.248 85.2517 166.136C87.4597 166.736 88.5637 168.284 88.5637 170.78C88.5637 171.812 88.3237 172.688 87.8437 173.408C87.3877 174.128 86.7517 174.668 85.9357 175.028C85.1197 175.388 84.2917 175.64 83.4517 175.784C82.6117 175.928 81.6997 176 80.7157 176ZM81.0037 167.54H75.0637V173.804H80.4637C84.2077 173.804 86.0797 172.736 86.0797 170.6C86.0797 168.56 84.3877 167.54 81.0037 167.54ZM80.2837 159.476H75.0637V165.38H81.2917C82.3957 165.38 83.3557 165.128 84.1717 164.624C84.9877 164.12 85.3957 163.352 85.3957 162.32C85.3957 161.696 85.2277 161.18 84.8917 160.772C84.5797 160.34 84.1237 160.04 83.5237 159.872C82.9477 159.704 82.4197 159.596 81.9397 159.548C81.4837 159.5 80.9317 159.476 80.2837 159.476ZM91.1185 166.604C91.1185 163.724 92.0545 161.372 93.9265 159.548C95.7985 157.724 98.1505 156.812 100.983 156.812C103.863 156.812 106.227 157.736 108.075 159.584C109.923 161.432 110.847 163.772 110.847 166.604C110.847 169.484 109.911 171.836 108.039 173.66C106.167 175.46 103.815 176.36 100.983 176.36C98.1025 176.36 95.7385 175.448 93.8905 173.624C92.0425 171.776 91.1185 169.436 91.1185 166.604ZM93.6025 166.604C93.6025 168.788 94.2985 170.588 95.6905 172.004C97.0825 173.42 98.8465 174.128 100.983 174.128C103.167 174.128 104.943 173.42 106.311 172.004C107.679 170.588 108.363 168.788 108.363 166.604C108.363 164.42 107.667 162.62 106.275 161.204C104.907 159.764 103.143 159.044 100.983 159.044C98.7985 159.044 97.0225 159.764 95.6545 161.204C94.2865 162.644 93.6025 164.444 93.6025 166.604ZM113.575 180.68H111.343V173.768H113.359C115.087 171.248 115.951 167.084 115.951 161.276V157.28H129.667V173.768H132.439V180.68H130.207V176H113.575V180.68ZM127.327 159.512H118.219V161.708C118.219 167.108 117.463 171.128 115.951 173.768H127.327V159.512ZM151.546 176H149.206V167.576H137.29V176H134.95V157.28H137.29V165.344H149.206V157.28H151.546V176ZM170.906 160.772L158.558 176H156.29V157.28H158.63V172.544L170.978 157.28H173.246V176H170.906V160.772ZM180.321 176H177.981V157.28H180.321V166.316L190.689 157.28H193.893L183.849 165.956L194.469 176H191.229L182.013 167.396L180.321 168.908V176ZM212.729 159.512H205.349V157.28H222.521V159.512H215.069V176H212.729V159.512ZM232.907 176H224.915V157.28H232.583C233.615 157.28 234.491 157.328 235.211 157.424C235.955 157.52 236.735 157.712 237.551 158C238.367 158.288 238.991 158.768 239.423 159.44C239.855 160.088 240.071 160.928 240.071 161.96C240.071 163.856 239.195 165.248 237.443 166.136C239.651 166.736 240.755 168.284 240.755 170.78C240.755 171.812 240.515 172.688 240.035 173.408C239.579 174.128 238.943 174.668 238.127 175.028C237.311 175.388 236.483 175.64 235.643 175.784C234.803 175.928 233.891 176 232.907 176ZM233.195 167.54H227.255V173.804H232.655C236.399 173.804 238.271 172.736 238.271 170.6C238.271 168.56 236.579 167.54 233.195 167.54ZM232.475 159.476H227.255V165.38H233.483C234.587 165.38 235.547 165.128 236.363 164.624C237.179 164.12 237.587 163.352 237.587 162.32C237.587 161.696 237.419 161.18 237.083 160.772C236.771 160.34 236.315 160.04 235.715 159.872C235.139 159.704 234.611 159.596 234.131 159.548C233.675 159.5 233.123 159.476 232.475 159.476ZM243.31 166.604C243.31 163.724 244.246 161.372 246.118 159.548C247.99 157.724 250.342 156.812 253.174 156.812C256.054 156.812 258.418 157.736 260.266 159.584C262.114 161.432 263.038 163.772 263.038 166.604C263.038 169.484 262.102 171.836 260.23 173.66C258.358 175.46 256.006 176.36 253.174 176.36C250.294 176.36 247.93 175.448 246.082 173.624C244.234 171.776 243.31 169.436 243.31 166.604ZM245.794 166.604C245.794 168.788 246.49 170.588 247.882 172.004C249.274 173.42 251.038 174.128 253.174 174.128C255.358 174.128 257.134 173.42 258.502 172.004C259.87 170.588 260.554 168.788 260.554 166.604C260.554 164.42 259.858 162.62 258.466 161.204C257.098 159.764 255.334 159.044 253.174 159.044C250.99 159.044 249.214 159.764 247.846 161.204C246.478 162.644 245.794 164.444 245.794 166.604ZM281.298 171.032L282.882 172.436C282.066 173.684 280.998 174.656 279.678 175.352C278.358 176.024 276.942 176.36 275.43 176.36C272.454 176.36 270.054 175.46 268.23 173.66C266.406 171.86 265.494 169.508 265.494 166.604C265.494 163.676 266.358 161.312 268.086 159.512C269.814 157.712 272.106 156.812 274.962 156.812C275.442 156.812 276.102 156.872 276.942 156.992C279.006 157.4 280.626 158.372 281.802 159.908C282.978 161.42 283.566 163.22 283.566 165.308C283.566 165.884 283.518 166.556 283.422 167.324H267.978C268.05 169.46 268.782 171.128 270.174 172.328C271.59 173.528 273.378 174.128 275.538 174.128C276.642 174.128 277.722 173.84 278.778 173.264C279.834 172.688 280.674 171.944 281.298 171.032ZM274.782 159.008C272.91 159.008 271.35 159.572 270.102 160.7C268.854 161.828 268.134 163.316 267.942 165.164H281.046C280.998 163.22 280.41 161.708 279.282 160.628C278.178 159.548 276.678 159.008 274.782 159.008ZM289.517 176H287.177V157.28H300.533V159.512H289.517V176ZM301.142 166.604C301.142 163.724 302.078 161.372 303.95 159.548C305.822 157.724 308.174 156.812 311.006 156.812C313.886 156.812 316.25 157.736 318.098 159.584C319.946 161.432 320.87 163.772 320.87 166.604C320.87 169.484 319.934 171.836 318.062 173.66C316.19 175.46 313.838 176.36 311.006 176.36C308.126 176.36 305.762 175.448 303.914 173.624C302.066 171.776 301.142 169.436 301.142 166.604ZM303.626 166.604C303.626 168.788 304.322 170.588 305.714 172.004C307.106 173.42 308.87 174.128 311.006 174.128C313.19 174.128 314.966 173.42 316.334 172.004C317.702 170.588 318.386 168.788 318.386 166.604C318.386 164.42 317.69 162.62 316.298 161.204C314.93 159.764 313.166 159.044 311.006 159.044C308.822 159.044 307.046 159.764 305.678 161.204C304.31 162.644 303.626 164.444 303.626 166.604ZM351.867 176H349.527V167.576H337.611V176H335.271V157.28H337.611V165.344H349.527V157.28H351.867V176ZM357.69 161.24L356.43 159.44C357.318 158.624 358.422 157.988 359.742 157.532C361.086 157.052 362.394 156.812 363.666 156.812C366.162 156.812 368.07 157.46 369.39 158.756C370.71 160.028 371.37 161.9 371.37 164.372V176H369.03V172.904C368.286 173.984 367.266 174.812 365.97 175.388C364.698 175.964 363.366 176.252 361.974 176.252C360.102 176.252 358.506 175.772 357.186 174.812C355.866 173.852 355.206 172.472 355.206 170.672C355.206 166.88 358.242 164.984 364.314 164.984C366.138 164.984 367.71 165.176 369.03 165.56C369.03 163.4 368.598 161.78 367.734 160.7C366.894 159.596 365.442 159.044 363.378 159.044C361.434 159.044 359.538 159.776 357.69 161.24ZM359.166 173.228C360.174 173.804 361.326 174.092 362.622 174.092C363.918 174.092 365.178 173.696 366.402 172.904C367.65 172.112 368.526 171.116 369.03 169.916V167.684C367.902 167.3 366.438 167.108 364.638 167.108C359.982 167.108 357.654 168.248 357.654 170.528C357.654 171.728 358.158 172.628 359.166 173.228ZM390.458 171.14L392.078 172.436C391.406 173.636 390.362 174.596 388.946 175.316C387.53 176.012 386.09 176.36 384.626 176.36C381.65 176.36 379.238 175.46 377.39 173.66C375.566 171.86 374.654 169.508 374.654 166.604C374.654 163.724 375.578 161.372 377.426 159.548C379.298 157.724 381.65 156.812 384.482 156.812C385.898 156.812 387.29 157.124 388.658 157.748C390.026 158.372 391.058 159.248 391.754 160.376L389.918 161.672C388.598 159.92 386.786 159.044 384.482 159.044C382.346 159.044 380.582 159.776 379.19 161.24C377.822 162.704 377.138 164.492 377.138 166.604C377.138 168.86 377.846 170.684 379.262 172.076C380.678 173.444 382.526 174.128 384.806 174.128C385.91 174.128 386.966 173.864 387.974 173.336C389.006 172.784 389.834 172.052 390.458 171.14ZM399.76 159.512H392.38V157.28H409.552V159.512H402.1V176H399.76V159.512ZM414.286 183.2H411.946V157.28H414.286V160.052C414.91 159.02 415.846 158.228 417.094 157.676C418.342 157.1 419.626 156.812 420.946 156.812C423.706 156.812 425.866 157.712 427.426 159.512C429.01 161.288 429.802 163.544 429.802 166.28C429.802 169.136 428.938 171.536 427.21 173.48C425.482 175.4 423.238 176.36 420.478 176.36C417.838 176.36 415.774 175.616 414.286 174.128V183.2ZM420.73 159.044C419.314 159.044 418.006 159.464 416.806 160.304C415.606 161.12 414.766 162.188 414.286 163.508V170.78C415.654 173.012 417.694 174.128 420.406 174.128C422.494 174.128 424.162 173.384 425.41 171.896C426.682 170.384 427.318 168.572 427.318 166.46C427.318 164.3 426.73 162.524 425.554 161.132C424.402 159.74 422.794 159.044 420.73 159.044ZM432.275 166.604C432.275 163.724 433.211 161.372 435.083 159.548C436.955 157.724 439.307 156.812 442.139 156.812C445.019 156.812 447.383 157.736 449.231 159.584C451.079 161.432 452.003 163.772 452.003 166.604C452.003 169.484 451.067 171.836 449.195 173.66C447.323 175.46 444.971 176.36 442.139 176.36C439.259 176.36 436.895 175.448 435.047 173.624C433.199 171.776 432.275 169.436 432.275 166.604ZM434.759 166.604C434.759 168.788 435.455 170.588 436.847 172.004C438.239 173.42 440.003 174.128 442.139 174.128C444.323 174.128 446.099 173.42 447.467 172.004C448.835 170.588 449.519 168.788 449.519 166.604C449.519 164.42 448.823 162.62 447.431 161.204C446.063 159.764 444.299 159.044 442.139 159.044C439.955 159.044 438.179 159.764 436.811 161.204C435.443 162.644 434.759 164.444 434.759 166.604ZM470.262 171.032L471.846 172.436C471.03 173.684 469.962 174.656 468.642 175.352C467.322 176.024 465.906 176.36 464.394 176.36C461.418 176.36 459.018 175.46 457.194 173.66C455.37 171.86 454.458 169.508 454.458 166.604C454.458 163.676 455.322 161.312 457.05 159.512C458.778 157.712 461.07 156.812 463.926 156.812C464.406 156.812 465.066 156.872 465.906 156.992C467.97 157.4 469.59 158.372 470.766 159.908C471.942 161.42 472.53 163.22 472.53 165.308C472.53 165.884 472.482 166.556 472.386 167.324H456.942C457.014 169.46 457.746 171.128 459.138 172.328C460.554 173.528 462.342 174.128 464.502 174.128C465.606 174.128 466.686 173.84 467.742 173.264C468.798 172.688 469.638 171.944 470.262 171.032ZM463.746 159.008C461.874 159.008 460.314 159.572 459.066 160.7C457.818 161.828 457.098 163.316 456.906 165.164H470.01C469.962 163.22 469.374 161.708 468.246 160.628C467.142 159.548 465.642 159.008 463.746 159.008ZM492.738 176H490.398V167.576H478.482V176H476.142V157.28H478.482V165.344H490.398V157.28H492.738V176ZM512.097 160.772L499.749 176H497.481V157.28H499.821V172.544L512.169 157.28H514.437V176H512.097V160.772ZM526.337 157.28H533.753V176H531.413V169.052H526.193L520.109 176H517.157L523.529 168.728C522.065 168.512 520.841 167.9 519.857 166.892C518.897 165.86 518.417 164.624 518.417 163.184C518.417 161.72 518.825 160.532 519.641 159.62C520.457 158.684 521.417 158.06 522.521 157.748C523.649 157.436 524.921 157.28 526.337 157.28ZM520.901 163.22C520.901 163.724 521.057 164.24 521.369 164.768C521.705 165.464 522.317 165.98 523.205 166.316C524.117 166.652 525.029 166.82 525.941 166.82H531.413V159.512H525.977C524.537 159.512 523.325 159.8 522.341 160.376C521.381 160.928 520.901 161.876 520.901 163.22Z" fill="#579ED2"/>
<g clip-path="url(#clip0_118_36)">
<path d="M38.336 95H26.72V27.8H36.992L60.992 59L84.128 27.8H94.304V95H82.688V48.44L62.24 75.128H59.264L38.336 48.344V95ZM108.2 113.624L112.52 104.312C113.16 104.696 113.896 104.888 114.728 104.888C117.736 104.888 120.36 102.104 122.6 96.536L124.328 92.024L99.752 45.08H112.424L129.608 78.776L142.856 45.08H154.568L134.984 93.56C132.104 100.792 129.224 106.168 126.344 109.688C123.336 113.272 119.592 115.064 115.112 115.064C112.424 115.064 110.12 114.584 108.2 113.624ZM211.77 75.8L218.586 83.288C215.642 87.384 211.706 90.488 206.778 92.6C201.914 94.712 196.762 95.768 191.322 95.768C180.89 95.768 172.506 92.6 166.17 86.264C159.898 79.928 156.762 71.64 156.762 61.4C156.762 51.416 160.026 43.192 166.554 36.728C173.082 30.264 181.274 27.032 191.13 27.032C196.378 27.032 201.402 28.024 206.202 30.008C211.002 31.928 214.778 34.808 217.53 38.648L209.85 45.944C205.242 40.76 199.194 38.168 191.706 38.168C184.73 38.168 179.162 40.344 175.002 44.696C170.906 48.984 168.858 54.552 168.858 61.4C168.858 68.312 171.002 73.912 175.29 78.2C179.642 82.488 185.274 84.632 192.186 84.632C200.25 84.632 206.778 81.688 211.77 75.8ZM230.527 59.384L225.151 51.32C227.647 48.952 230.815 47.128 234.655 45.848C238.495 44.568 242.303 43.928 246.079 43.928C252.671 43.928 257.727 45.72 261.247 49.304C264.767 52.824 266.527 57.88 266.527 64.472V95H255.583V89.528C251.935 93.56 246.783 95.576 240.127 95.576C234.943 95.576 230.623 94.232 227.167 91.544C223.711 88.792 221.983 84.888 221.983 79.832C221.983 76.76 222.687 74.136 224.095 71.96C225.503 69.784 227.423 68.152 229.855 67.064C232.287 65.976 234.751 65.208 237.247 64.76C239.743 64.248 242.431 63.992 245.311 63.992C249.087 63.992 252.511 64.44 255.583 65.336C255.711 61.816 254.943 59.032 253.279 56.984C251.615 55.064 248.799 54.104 244.831 54.104C239.903 54.104 235.135 55.864 230.527 59.384ZM242.527 86.072C245.151 86.072 247.647 85.464 250.015 84.248C252.383 83.032 254.239 81.368 255.583 79.256V74.456C252.383 73.56 249.343 73.112 246.463 73.112C237.695 73.112 233.311 75.32 233.311 79.736C233.311 81.912 234.239 83.512 236.095 84.536C238.015 85.56 240.159 86.072 242.527 86.072ZM348.24 61.88V95H337.296V64.952C337.296 57.784 334.512 54.2 328.944 54.2C326.512 54.2 324.304 54.904 322.32 56.312C320.336 57.72 318.832 59.576 317.808 61.88V95H306.864V62.552C306.864 60.056 306.128 58.04 304.656 56.504C303.184 54.968 301.2 54.2 298.704 54.2C296.208 54.2 293.936 54.968 291.888 56.504C289.84 58.04 288.336 59.992 287.376 62.36V95H276.432V45.08H287.376V49.4C289.808 45.816 294.352 44.024 301.008 44.024C307.216 44.024 311.728 46.072 314.544 50.168C318 46.072 323.024 44.024 329.616 44.024C335.632 44.024 340.24 45.528 343.44 48.536C346.64 51.48 348.24 55.928 348.24 61.88ZM369.032 114.2H358.088V45.08H369.032V49.592C370.504 47.736 372.488 46.328 374.984 45.368C377.544 44.408 380.168 43.928 382.856 43.928C390.344 43.928 396.232 46.296 400.52 51.032C404.872 55.768 407.048 61.816 407.048 69.176C407.048 76.856 404.744 83.224 400.136 88.28C395.592 93.336 389.576 95.864 382.088 95.864C379.72 95.864 377.224 95.544 374.6 94.904C372.04 94.2 370.184 93.144 369.032 91.736V114.2ZM381.704 54.104C378.952 54.104 376.424 54.84 374.12 56.312C371.88 57.784 370.184 59.768 369.032 62.264V79.544C371.528 83.64 375.464 85.688 380.84 85.688C385.384 85.688 389 84.248 391.688 81.368C394.376 78.424 395.72 74.648 395.72 70.04C395.72 65.304 394.536 61.464 392.168 58.52C389.8 55.576 386.312 54.104 381.704 54.104Z" fill="url(#paint0_linear_118_36)"/>
<mask id="mask0_118_36" style="mask-type:alpha" maskUnits="userSpaceOnUse" x="0" y="0" width="454" height="129">
<rect x="4.5" y="4.5" width="445" height="120" rx="31.5" stroke="#60B2DF" stroke-width="9"/>
</mask>
<g mask="url(#mask0_118_36)">
<path d="M174 129L-1.52588e-05 129L-4.76806e-06 -1.09364e-06L144.262 1.2464e-05L174 129Z" fill="url(#paint1_linear_118_36)"/>
</g>
</g>
<defs>
<linearGradient id="paint0_linear_118_36" x1="20" y1="62.5" x2="410" y2="62.5" gradientUnits="userSpaceOnUse">
<stop stop-color="#72C6EF"/>
<stop offset="1" stop-color="#004E8F"/>
</linearGradient>
<linearGradient id="paint1_linear_118_36" x1="174" y1="64.5" x2="-244.288" y2="64.5" gradientUnits="userSpaceOnUse">
<stop stop-color="#72C6EF"/>
<stop offset="1" stop-color="#004E8F"/>
</linearGradient>
<clipPath id="clip0_118_36">
<rect width="407" height="129" fill="white"/>
</clipPath>
</defs>
</svg>
