<svg width="28" height="26" viewBox="0 0 28 26" fill="none" xmlns="http://www.w3.org/2000/svg">
<path d="M7.33268 16.6665H15.366C15.7438 16.6665 16.0549 16.5385 16.2993 16.2825C16.5438 16.0274 16.666 15.7109 16.666 15.3332C16.666 14.9554 16.5385 14.6385 16.2833 14.3825C16.0273 14.1274 15.7105 13.9998 15.3327 13.9998H7.29935C6.92157 13.9998 6.61046 14.1274 6.36602 14.3825C6.12157 14.6385 5.99935 14.9554 5.99935 15.3332C5.99935 15.7109 6.1269 16.0274 6.38202 16.2825C6.63802 16.5385 6.9549 16.6665 7.33268 16.6665ZM7.33268 12.6665H20.6993C21.0771 12.6665 21.3882 12.5385 21.6327 12.2825C21.8771 12.0274 21.9993 11.7109 21.9993 11.3332C21.9993 10.9554 21.8713 10.6385 21.6153 10.3825C21.3602 10.1274 21.0438 9.99984 20.666 9.99984H7.29935C6.92157 9.99984 6.61046 10.1274 6.36602 10.3825C6.12157 10.6385 5.99935 10.9554 5.99935 11.3332C5.99935 11.7109 6.1269 12.0274 6.38202 12.2825C6.63802 12.5385 6.9549 12.6665 7.33268 12.6665ZM7.33268 8.6665H20.6993C21.0771 8.6665 21.3882 8.53895 21.6327 8.28384C21.8771 8.02784 21.9993 7.71095 21.9993 7.33317C21.9993 6.95539 21.8713 6.6385 21.6153 6.3825C21.3602 6.12739 21.0438 5.99984 20.666 5.99984H7.29935C6.92157 5.99984 6.61046 6.12739 6.36602 6.3825C6.12157 6.6385 5.99935 6.95539 5.99935 7.33317C5.99935 7.71095 6.1269 8.02784 6.38202 8.28384C6.63802 8.53895 6.9549 8.6665 7.33268 8.6665ZM0.666016 24.0998V3.33317C0.666016 2.59984 0.927349 1.97184 1.45002 1.44917C1.97179 0.927393 2.59935 0.666504 3.33268 0.666504H24.666C25.3993 0.666504 26.0273 0.927393 26.55 1.44917C27.0718 1.97184 27.3327 2.59984 27.3327 3.33317V19.3332C27.3327 20.0665 27.0718 20.6945 26.55 21.2172C26.0273 21.7389 25.3993 21.9998 24.666 21.9998H5.99935L2.93268 25.0665C2.51046 25.4887 2.0269 25.5829 1.48202 25.3492C0.938016 25.1163 0.666016 24.6998 0.666016 24.0998ZM3.33268 20.8998L4.89935 19.3332H24.666V3.33317H3.33268V20.8998ZM3.33268 3.33317V20.8998V3.33317Z" fill="#00A9DF"/>
<path d="M7.33268 16.6665H15.366C15.7438 16.6665 16.0549 16.5385 16.2993 16.2825C16.5438 16.0274 16.666 15.7109 16.666 15.3332C16.666 14.9554 16.5385 14.6385 16.2833 14.3825C16.0273 14.1274 15.7105 13.9998 15.3327 13.9998H7.29935C6.92157 13.9998 6.61046 14.1274 6.36602 14.3825C6.12157 14.6385 5.99935 14.9554 5.99935 15.3332C5.99935 15.7109 6.1269 16.0274 6.38202 16.2825C6.63802 16.5385 6.9549 16.6665 7.33268 16.6665ZM7.33268 12.6665H20.6993C21.0771 12.6665 21.3882 12.5385 21.6327 12.2825C21.8771 12.0274 21.9993 11.7109 21.9993 11.3332C21.9993 10.9554 21.8713 10.6385 21.6153 10.3825C21.3602 10.1274 21.0438 9.99984 20.666 9.99984H7.29935C6.92157 9.99984 6.61046 10.1274 6.36602 10.3825C6.12157 10.6385 5.99935 10.9554 5.99935 11.3332C5.99935 11.7109 6.1269 12.0274 6.38202 12.2825C6.63802 12.5385 6.9549 12.6665 7.33268 12.6665ZM7.33268 8.6665H20.6993C21.0771 8.6665 21.3882 8.53895 21.6327 8.28384C21.8771 8.02784 21.9993 7.71095 21.9993 7.33317C21.9993 6.95539 21.8713 6.6385 21.6153 6.3825C21.3602 6.12739 21.0438 5.99984 20.666 5.99984H7.29935C6.92157 5.99984 6.61046 6.12739 6.36602 6.3825C6.12157 6.6385 5.99935 6.95539 5.99935 7.33317C5.99935 7.71095 6.1269 8.02784 6.38202 8.28384C6.63802 8.53895 6.9549 8.6665 7.33268 8.6665ZM0.666016 24.0998V3.33317C0.666016 2.59984 0.927349 1.97184 1.45002 1.44917C1.97179 0.927393 2.59935 0.666504 3.33268 0.666504H24.666C25.3993 0.666504 26.0273 0.927393 26.55 1.44917C27.0718 1.97184 27.3327 2.59984 27.3327 3.33317V19.3332C27.3327 20.0665 27.0718 20.6945 26.55 21.2172C26.0273 21.7389 25.3993 21.9998 24.666 21.9998H5.99935L2.93268 25.0665C2.51046 25.4887 2.0269 25.5829 1.48202 25.3492C0.938016 25.1163 0.666016 24.6998 0.666016 24.0998ZM3.33268 20.8998L4.89935 19.3332H24.666V3.33317H3.33268V20.8998ZM3.33268 3.33317V20.8998V3.33317Z" fill="#00A9DF"/>
</svg>
