<svg width="32" height="32" viewBox="0 0 32 32" fill="none" xmlns="http://www.w3.org/2000/svg">
<path d="M12.0007 15.9998C11.6229 15.9998 11.3064 15.8718 11.0513 15.6158C10.7953 15.3607 10.6673 15.0443 10.6673 14.6665C10.6673 14.2887 10.7953 13.9718 11.0513 13.7158C11.3064 13.4607 11.6229 13.3332 12.0007 13.3332H20.0007C20.3784 13.3332 20.6953 13.4607 20.9513 13.7158C21.2064 13.9718 21.334 14.2887 21.334 14.6665C21.334 15.0443 21.2064 15.3607 20.9513 15.6158C20.6953 15.8718 20.3784 15.9998 20.0007 15.9998H12.0007ZM12.0007 10.6665C11.6229 10.6665 11.3064 10.5389 11.0513 10.2838C10.7953 10.0278 10.6673 9.71095 10.6673 9.33317C10.6673 8.95539 10.7953 8.6385 11.0513 8.3825C11.3064 8.12739 11.6229 7.99984 12.0007 7.99984H20.0007C20.3784 7.99984 20.6953 8.12739 20.9513 8.3825C21.2064 8.6385 21.334 8.95539 21.334 9.33317C21.334 9.71095 21.2064 10.0278 20.9513 10.2838C20.6953 10.5389 20.3784 10.6665 20.0007 10.6665H12.0007ZM8.00065 18.6665H18.0007C18.6451 18.6665 19.2451 18.8052 19.8007 19.0825C20.3562 19.3607 20.8229 19.7554 21.2007 20.2665L24.0007 23.9332V5.33317H8.00065V18.6665ZM8.00065 26.6665H22.734L19.1007 21.8998C18.9673 21.7221 18.8064 21.5834 18.618 21.4838C18.4287 21.3834 18.2229 21.3332 18.0007 21.3332H8.00065V26.6665ZM24.0007 29.3332H8.00065C7.26732 29.3332 6.63976 29.0723 6.11798 28.5505C5.59532 28.0278 5.33398 27.3998 5.33398 26.6665V5.33317C5.33398 4.59984 5.59532 3.97184 6.11798 3.44917C6.63976 2.92739 7.26732 2.6665 8.00065 2.6665H24.0007C24.734 2.6665 25.362 2.92739 25.8847 3.44917C26.4064 3.97184 26.6673 4.59984 26.6673 5.33317V26.6665C26.6673 27.3998 26.4064 28.0278 25.8847 28.5505C25.362 29.0723 24.734 29.3332 24.0007 29.3332ZM8.00065 26.6665V5.33317V26.6665ZM8.00065 21.3332V18.6665V21.3332Z" fill="#00A9DF"/>
<path d="M25.3333 25.3333H6.66667V6.66667H25.3333M25.3333 4H6.66667C5.95942 4 5.28115 4.28095 4.78105 4.78105C4.28095 5.28115 4 5.95942 4 6.66667V25.3333C4 26.0406 4.28095 26.7189 4.78105 27.219C5.28115 27.719 5.95942 28 6.66667 28H25.3333C26.0406 28 26.7189 27.719 27.219 27.219C27.719 26.7189 28 26.0406 28 25.3333V6.66667C28 5.95942 27.719 5.28115 27.219 4.78105C26.7189 4.28095 26.0406 4 25.3333 4ZM22 21.6667C22 19.6667 18 18.6667 16 18.6667C14 18.6667 10 19.6667 10 21.6667V22.6667H22M16 16.3333C16.7956 16.3333 17.5587 16.0173 18.1213 15.4547C18.6839 14.892 19 14.129 19 13.3333C19 12.5377 18.6839 11.7746 18.1213 11.212C17.5587 10.6494 16.7956 10.3333 16 10.3333C15.2044 10.3333 14.4413 10.6494 13.8787 11.212C13.3161 11.7746 13 12.5377 13 13.3333C13 14.129 13.3161 14.892 13.8787 15.4547C14.4413 16.0173 15.2044 16.3333 16 16.3333Z" fill="#00AADF"/>
</svg>
