<svg width="27" height="18" viewBox="0 0 27 18" fill="none" xmlns="http://www.w3.org/2000/svg">
<path d="M1.33333 4C0.955555 4 0.639111 3.872 0.384 3.616C0.128 3.36089 0 3.04444 0 2.66667C0 2.28889 0.128 1.972 0.384 1.716C0.639111 1.46089 0.955555 1.33333 1.33333 1.33333H5.33333C5.71111 1.33333 6.028 1.46089 6.284 1.716C6.53911 1.972 6.66667 2.28889 6.66667 2.66667C6.66667 3.04444 6.53911 3.36089 6.284 3.616C6.028 3.872 5.71111 4 5.33333 4H1.33333ZM1.33333 10.6667C0.955555 10.6667 0.639111 10.5387 0.384 10.2827C0.128 10.0276 0 9.71111 0 9.33333C0 8.95556 0.128 8.63867 0.384 8.38267C0.639111 8.12756 0.955555 8 1.33333 8H5.33333C5.71111 8 6.028 8.12756 6.284 8.38267C6.53911 8.63867 6.66667 8.95556 6.66667 9.33333C6.66667 9.71111 6.53911 10.0276 6.284 10.2827C6.028 10.5387 5.71111 10.6667 5.33333 10.6667H1.33333ZM23.8667 16.4L19.6667 12.2C19.1333 12.5778 18.5502 12.8609 17.9173 13.0493C17.2836 13.2387 16.6444 13.3333 16 13.3333C14.1556 13.3333 12.5836 12.6831 11.284 11.3827C9.98356 10.0831 9.33333 8.51111 9.33333 6.66667C9.33333 4.82222 9.98356 3.24978 11.284 1.94933C12.5836 0.649778 14.1556 0 16 0C17.8444 0 19.4169 0.649778 20.7173 1.94933C22.0169 3.24978 22.6667 4.82222 22.6667 6.66667C22.6667 7.31111 22.5724 7.95022 22.384 8.584C22.1947 9.21689 21.9111 9.8 21.5333 10.3333L25.7333 14.5333C25.9778 14.7778 26.1 15.0889 26.1 15.4667C26.1 15.8444 25.9778 16.1556 25.7333 16.4C25.4889 16.6444 25.1778 16.7667 24.8 16.7667C24.4222 16.7667 24.1111 16.6444 23.8667 16.4ZM16 10.6667C17.1111 10.6667 18.0556 10.2778 18.8333 9.5C19.6111 8.72222 20 7.77778 20 6.66667C20 5.55556 19.6111 4.61111 18.8333 3.83333C18.0556 3.05556 17.1111 2.66667 16 2.66667C14.8889 2.66667 13.9444 3.05556 13.1667 3.83333C12.3889 4.61111 12 5.55556 12 6.66667C12 7.77778 12.3889 8.72222 13.1667 9.5C13.9444 10.2778 14.8889 10.6667 16 10.6667ZM1.33333 17.3333C0.955555 17.3333 0.639111 17.2053 0.384 16.9493C0.128 16.6942 0 16.3778 0 16C0 15.6222 0.128 15.3058 0.384 15.0507C0.639111 14.7947 0.955555 14.6667 1.33333 14.6667H12C12.3778 14.6667 12.6947 14.7947 12.9507 15.0507C13.2058 15.3058 13.3333 15.6222 13.3333 16C13.3333 16.3778 13.2058 16.6942 12.9507 16.9493C12.6947 17.2053 12.3778 17.3333 12 17.3333H1.33333Z" fill="#00AADF"/>
</svg>
