<svg width="28" height="28" viewBox="0 0 28 28" fill="none" xmlns="http://www.w3.org/2000/svg">
<path d="M13.9327 21.9998C14.3993 21.9998 14.794 21.8385 15.1167 21.5158C15.4385 21.1941 15.5993 20.7998 15.5993 20.3332C15.5993 19.8665 15.4385 19.4723 15.1167 19.1505C14.794 18.8278 14.3993 18.6665 13.9327 18.6665C13.466 18.6665 13.0713 18.8278 12.7487 19.1505C12.4269 19.4723 12.266 19.8665 12.266 20.3332C12.266 20.7998 12.4269 21.1941 12.7487 21.5158C13.0713 21.8385 13.466 21.9998 13.9327 21.9998ZM14.1327 8.2665C14.7549 8.2665 15.2549 8.4385 15.6327 8.7825C16.0105 9.12739 16.1993 9.57761 16.1993 10.1332C16.1993 10.5109 16.0718 10.8941 15.8167 11.2825C15.5607 11.6718 15.1993 12.0776 14.7327 12.4998C14.066 13.0776 13.5771 13.6332 13.266 14.1665C12.9549 14.6998 12.7993 15.2332 12.7993 15.7665C12.7993 16.0776 12.9162 16.3385 13.15 16.5492C13.3829 16.7607 13.6549 16.8665 13.966 16.8665C14.2771 16.8665 14.5549 16.7554 14.7993 16.5332C15.0438 16.3109 15.1993 16.0332 15.266 15.6998C15.3327 15.3221 15.4829 14.9723 15.7167 14.6505C15.9496 14.3278 16.3327 13.9109 16.866 13.3998C17.5549 12.7554 18.0385 12.1665 18.3167 11.6332C18.594 11.0998 18.7327 10.5109 18.7327 9.8665C18.7327 8.73317 18.3051 7.80517 17.45 7.0825C16.594 6.36073 15.4882 5.99984 14.1327 5.99984C13.1993 5.99984 12.3718 6.17761 11.65 6.53317C10.9273 6.88873 10.366 7.43317 9.96602 8.1665C9.81046 8.45539 9.7549 8.7385 9.79935 9.01584C9.84379 9.29406 9.99935 9.52206 10.266 9.69984C10.5549 9.87761 10.8718 9.93317 11.2167 9.8665C11.5607 9.79984 11.8438 9.61095 12.066 9.29984C12.3105 8.9665 12.6051 8.71095 12.95 8.53317C13.294 8.35539 13.6882 8.2665 14.1327 8.2665ZM13.9993 27.3332C12.1771 27.3332 10.4549 26.9829 8.83268 26.2825C7.21046 25.5829 5.79402 24.6332 4.58335 23.4332C3.37179 22.2332 2.41624 20.8221 1.71668 19.1998C1.01624 17.5776 0.666016 15.8443 0.666016 13.9998C0.666016 12.1554 1.01624 10.4221 1.71668 8.79984C2.41624 7.17762 3.37179 5.7665 4.58335 4.5665C5.79402 3.3665 7.21046 2.41628 8.83268 1.71584C10.4549 1.01628 12.1771 0.666504 13.9993 0.666504C15.866 0.666504 17.6105 1.01628 19.2327 1.71584C20.8549 2.41628 22.266 3.3665 23.466 4.5665C24.666 5.7665 25.6105 7.17762 26.2993 8.79984C26.9882 10.4221 27.3327 12.1554 27.3327 13.9998C27.3327 15.8443 26.9882 17.5776 26.2993 19.1998C25.6105 20.8221 24.666 22.2332 23.466 23.4332C22.266 24.6332 20.8549 25.5829 19.2327 26.2825C17.6105 26.9829 15.866 27.3332 13.9993 27.3332ZM13.9993 24.6665C16.9771 24.6665 19.4993 23.6278 21.566 21.5505C23.6327 19.4723 24.666 16.9554 24.666 13.9998C24.666 11.0443 23.6327 8.52739 21.566 6.44917C19.4993 4.37184 16.9771 3.33317 13.9993 3.33317C11.0882 3.33317 8.58246 4.37184 6.48202 6.44917C4.38246 8.52739 3.33268 11.0443 3.33268 13.9998C3.33268 16.9554 4.38246 19.4723 6.48202 21.5505C8.58246 23.6278 11.0882 24.6665 13.9993 24.6665Z" fill="#00A9DF"/>
<path d="M13.9327 21.9998C14.3993 21.9998 14.794 21.8385 15.1167 21.5158C15.4385 21.1941 15.5993 20.7998 15.5993 20.3332C15.5993 19.8665 15.4385 19.4723 15.1167 19.1505C14.794 18.8278 14.3993 18.6665 13.9327 18.6665C13.466 18.6665 13.0713 18.8278 12.7487 19.1505C12.4269 19.4723 12.266 19.8665 12.266 20.3332C12.266 20.7998 12.4269 21.1941 12.7487 21.5158C13.0713 21.8385 13.466 21.9998 13.9327 21.9998ZM14.1327 8.2665C14.7549 8.2665 15.2549 8.4385 15.6327 8.7825C16.0105 9.12739 16.1993 9.57761 16.1993 10.1332C16.1993 10.5109 16.0718 10.8941 15.8167 11.2825C15.5607 11.6718 15.1993 12.0776 14.7327 12.4998C14.066 13.0776 13.5771 13.6332 13.266 14.1665C12.9549 14.6998 12.7993 15.2332 12.7993 15.7665C12.7993 16.0776 12.9162 16.3385 13.15 16.5492C13.3829 16.7607 13.6549 16.8665 13.966 16.8665C14.2771 16.8665 14.5549 16.7554 14.7993 16.5332C15.0438 16.3109 15.1993 16.0332 15.266 15.6998C15.3327 15.3221 15.4829 14.9723 15.7167 14.6505C15.9496 14.3278 16.3327 13.9109 16.866 13.3998C17.5549 12.7554 18.0385 12.1665 18.3167 11.6332C18.594 11.0998 18.7327 10.5109 18.7327 9.8665C18.7327 8.73317 18.3051 7.80517 17.45 7.0825C16.594 6.36073 15.4882 5.99984 14.1327 5.99984C13.1993 5.99984 12.3718 6.17761 11.65 6.53317C10.9273 6.88873 10.366 7.43317 9.96602 8.1665C9.81046 8.45539 9.7549 8.7385 9.79935 9.01584C9.84379 9.29406 9.99935 9.52206 10.266 9.69984C10.5549 9.87761 10.8718 9.93317 11.2167 9.8665C11.5607 9.79984 11.8438 9.61095 12.066 9.29984C12.3105 8.9665 12.6051 8.71095 12.95 8.53317C13.294 8.35539 13.6882 8.2665 14.1327 8.2665ZM13.9993 27.3332C12.1771 27.3332 10.4549 26.9829 8.83268 26.2825C7.21046 25.5829 5.79402 24.6332 4.58335 23.4332C3.37179 22.2332 2.41624 20.8221 1.71668 19.1998C1.01624 17.5776 0.666016 15.8443 0.666016 13.9998C0.666016 12.1554 1.01624 10.4221 1.71668 8.79984C2.41624 7.17762 3.37179 5.7665 4.58335 4.5665C5.79402 3.3665 7.21046 2.41628 8.83268 1.71584C10.4549 1.01628 12.1771 0.666504 13.9993 0.666504C15.866 0.666504 17.6105 1.01628 19.2327 1.71584C20.8549 2.41628 22.266 3.3665 23.466 4.5665C24.666 5.7665 25.6105 7.17762 26.2993 8.79984C26.9882 10.4221 27.3327 12.1554 27.3327 13.9998C27.3327 15.8443 26.9882 17.5776 26.2993 19.1998C25.6105 20.8221 24.666 22.2332 23.466 23.4332C22.266 24.6332 20.8549 25.5829 19.2327 26.2825C17.6105 26.9829 15.866 27.3332 13.9993 27.3332ZM13.9993 24.6665C16.9771 24.6665 19.4993 23.6278 21.566 21.5505C23.6327 19.4723 24.666 16.9554 24.666 13.9998C24.666 11.0443 23.6327 8.52739 21.566 6.44917C19.4993 4.37184 16.9771 3.33317 13.9993 3.33317C11.0882 3.33317 8.58246 4.37184 6.48202 6.44917C4.38246 8.52739 3.33268 11.0443 3.33268 13.9998C3.33268 16.9554 4.38246 19.4723 6.48202 21.5505C8.58246 23.6278 11.0882 24.6665 13.9993 24.6665Z" fill="#00A9DF"/>
</svg>
